# xmcd CD database file
#
# Track frame offsets:
#	182
#	43297
#	71565
#	92707
#	103267
#	128340
#	170255
#
# Disc length: 3861 seconds
#
# Revision: 2
# Processed by: cddbd v1.5PL3 Copyright (c) Steve Scherf et al.
# Submitted via: CDex 1.51
#
DISCID=590f1307
DTITLE=Vladimir Horowitz - Vladimir Horowitz - Enregistrements Aufnahmen 1930-1951
DYEAR=1900
DGENRE=Classical
TTITLE0=32 Variations in C minor WO 80
TTITLE1=Arabeske, Op. 18
TTITLE2=Toccata in C major, Op. 7
TTITLE3=Traumeswirren (Fantasiestucke Op. 12 No. 7)
TTITLE4=Presto passionata (original Finale of Sonata No. 2, Op. 22)
TTITLE5=Funerailles (Harmonies poetiques et religieuses, No. 7)
TTITLE6=Sonata in B minor
EXTD=
EXTT0=
EXTT1=
EXTT2=
EXTT3=
EXTT4=
EXTT5=
EXTT6=
PLAYORDER=
